<?xml version="1.0" standalone="no"?><!DOCTYPE svg PUBLIC "-//W3C//DTD SVG 1.1//EN" "http://www.w3.org/Graphics/SVG/1.1/DTD/svg11.dtd"><svg t="1681570764421" class="icon" viewBox="0 0 1024 1024" version="1.1" xmlns="http://www.w3.org/2000/svg" p-id="5044" xmlns:xlink="http://www.w3.org/1999/xlink" width="200" height="200"><path d="M917.067869 570.181818c-6.981818 0-13.963636-2.327273-20.945454-9.309091-4.654545-4.654545-9.309091-11.636364-9.309091-20.945454 0-6.981818 2.327273-13.963636 9.309091-20.945455 51.2-53.527273 74.472727-125.672727 65.163636-197.818182-9.309091-72.145455-51.2-137.309091-116.363636-174.545454-32.581818-18.618182-69.818182-30.254545-109.381819-30.254546-62.836364 0-128 27.927273-174.545454 74.472728l-30.254546 30.254545c-4.654545 9.309091-11.636364 11.636364-18.618181 11.636364-6.981818 0-16.290909-2.327273-20.945455-9.309091l-30.254545-30.254546c-46.545455-46.545455-109.381818-74.472727-174.545455-74.472727-39.563636 0-76.8 9.309091-109.381818 30.254546-65.163636 37.236364-107.054545 100.072727-116.363637 174.545454-9.309091 74.472727 13.963636 146.618182 65.163637 197.818182 11.636364 11.636364 11.636364 30.254545 0 41.890909-4.654545 4.654545-11.636364 6.981818-20.945455 6.981818-6.981818 0-16.290909-2.327273-20.945454-9.309091-62.836364-65.163636-93.090909-155.927273-81.454546-246.690909 11.636364-90.763636 65.163636-169.890909 144.290909-216.436363 41.890909-23.272727 90.763636-37.236364 139.636364-37.236364 79.127273 0 158.254545 32.581818 216.436364 93.090909l4.654545 4.654545c2.327273 2.327273 2.327273 2.327273 4.654546 2.327273s4.654545 0 4.654545-2.327273l4.654545-4.654545c58.181818-58.181818 137.309091-93.090909 216.436364-93.090909 48.872727 0 97.745455 13.963636 137.309091 37.236364 79.127273 46.545455 132.654545 125.672727 144.290909 216.436363 11.636364 90.763636-18.618182 181.527273-83.781818 246.690909-2.327273 6.981818-9.309091 9.309091-18.618182 9.309091zM512.122415 963.490909c-18.618182 0-37.236364-6.981818-53.527273-23.272727L170.013324 646.981818c-11.636364-11.636364-11.636364-30.254545 0-41.890909 4.654545-4.654545 11.636364-6.981818 20.945454-6.981818 6.981818 0 16.290909 2.327273 20.945455 9.309091l288.581818 293.236363c2.327273 2.327273 6.981818 4.654545 11.636364 4.654546 2.327273 0 6.981818 0 11.636363-4.654546l288.581818-293.236363c4.654545-4.654545 11.636364-9.309091 20.945455-9.309091 6.981818 0 13.963636 2.327273 20.945454 9.309091 4.654545 4.654545 9.309091 11.636364 9.309091 20.945454 0 6.981818-2.327273 13.963636-9.309091 20.945455L565.649687 940.218182c-13.963636 16.290909-32.581818 23.272727-53.527272 23.272727z" p-id="5045"></path></svg>